<?xml version="1.0" encoding="iso-8859-1"?>
<!-- Generator: Adobe Illustrator 19.0.0, SVG Export Plug-In . SVG Version: 6.00 Build 0)  -->
<svg version="1.1" id="Capa_1" xmlns="http://www.w3.org/2000/svg" xmlns:xlink="http://www.w3.org/1999/xlink" x="0px" y="0px"
	 viewBox="0 0 384 384" style="enable-background:new 0 0 384 384;" xml:space="preserve">
<g>
	<g>
		<path d="M319.936,137.232c0-0.416,0.064-0.816,0.064-1.232C320,65.312,262.688,8,192,8S64,65.312,64,136
			c0,0.416,0.064,0.816,0.064,1.232C25.808,159.36,0,200.624,0,248c0,70.688,57.312,128,128,128c23.344,0,45.152-6.352,64-17.264
			C210.848,369.648,232.656,376,256,376c70.688,0,128-57.312,128-128C384,200.624,358.192,159.36,319.936,137.232z M192,24
			c59.488,0,108.144,46.656,111.664,105.264C288.912,123.344,272.864,120,256,120c-23.344,0-45.152,6.352-64,17.264
			C173.152,126.352,151.344,120,128,120c-16.864,0-32.912,3.344-47.664,9.264C83.856,70.656,132.512,24,192,24z M192,156.208
			c26.208,18.336,44.256,47.552,47.456,81.088C225.024,244.096,208.976,248,192,248s-33.024-3.904-47.456-10.704
			C147.744,203.776,165.792,174.544,192,156.208z M129.568,228.944c-27.088-18.256-45.776-48.032-49.024-82.24
			C94.976,139.904,111.024,136,128,136c17.584,0,34.16,4.192,48.976,11.44C151.936,167.136,134.512,195.968,129.568,228.944z
			 M207.024,147.44C221.84,140.192,238.416,136,256,136c16.976,0,33.024,3.904,47.456,10.704
			c-3.264,34.208-21.936,63.984-49.024,82.24C249.488,195.968,232.064,167.136,207.024,147.44z M128,360c-61.76,0-112-50.24-112-112
			c0-38.656,19.696-72.8,49.568-92.944c5.872,39.248,29.472,72.608,62.496,91.712c0,0.416-0.064,0.816-0.064,1.232
			c0,40.848,19.2,77.136,48.976,100.56C162.16,355.808,145.584,360,128,360z M192,339.776
			c-27.232-19.056-45.552-49.872-47.664-85.04c14.752,5.92,30.8,9.264,47.664,9.264s32.912-3.344,47.664-9.264
			C237.552,289.904,219.248,320.736,192,339.776z M256,360c-17.584,0-34.16-4.192-48.976-11.44C236.816,325.12,256,288.832,256,248
			c0-0.416-0.064-0.816-0.064-1.232c33.008-19.104,56.608-52.464,62.496-91.712C348.304,175.184,368,209.328,368,248
			C368,309.76,317.76,360,256,360z"/>
	</g>
</g>
<g>
</g>
<g>
</g>
<g>
</g>
<g>
</g>
<g>
</g>
<g>
</g>
<g>
</g>
<g>
</g>
<g>
</g>
<g>
</g>
<g>
</g>
<g>
</g>
<g>
</g>
<g>
</g>
<g>
</g>
</svg>
